<svg width="137" height="23" viewBox="0 0 137 23" fill="none" xmlns="http://www.w3.org/2000/svg">
<path d="M10.4544 0C9.35127 1.58314 10.4469 5.76875 10.6867 7.66667L11.616 7.43434C11.3575 5.38927 11.5995 1.67624 10.4544 0Z" fill="#FF7000"/>
<path d="M13.4749 0.232422L11.8486 7.43444L12.7779 7.66677L14.1719 0.464745L13.4749 0.232422Z" fill="#FF7000"/>
<path d="M6.73719 1.16152L9.29274 7.8989L4.8786 2.55546L3.94931 2.78778L8.36345 8.82819L2.09072 4.87869L1.8584 5.80799L8.13113 9.75748L9.29274 7.8989L10.4544 7.66657L7.66648 0.929199L6.73719 1.16152Z" fill="#FF7000"/>
<path d="M16.4946 1.16162L13.0098 7.89899C14.6305 8.14428 17.593 2.41568 16.4946 1.16162Z" fill="#FF7000"/>
<path d="M14.1719 8.82813C16.2618 8.38753 18.783 5.18398 19.98 3.4847C18.0305 3.32137 14.6726 7.04403 14.1719 8.82813Z" fill="#FF7000"/>
<path d="M0.697167 7.89893L0.464844 8.5959C2.42969 9.62711 5.44778 10.5854 7.66686 10.6868C7.06542 8.95723 2.3803 8.24727 0.697167 7.89893Z" fill="#FF7000"/>
<path d="M0 11.1514V12.0807H7.43434V11.1514H0Z" fill="#FF7000"/>
<path d="M15.5664 12.0809L23.0007 11.8485V11.3839C21.5257 10.9479 16.1212 10.4093 15.5664 12.0809Z" fill="#FF7000"/>
<path d="M15.334 12.5454C15.937 14.2783 20.6226 14.9854 22.3037 15.3333L22.536 15.101V14.6363C20.5585 13.5984 17.5672 12.6428 15.334 12.5454Z" fill="#FF7000"/>
<path d="M15.1014 13.4746L14.6367 14.4039L20.9094 18.3534L21.1418 17.4241L15.1014 13.4746Z" fill="#FF7000"/>
<path d="M3.25293 19.7477L3.48525 19.98L9.06101 15.1013C7.56404 13.7257 3.87688 18.4098 3.25293 19.7477Z" fill="#FF7000"/>
<path d="M15.3334 22.3031H16.2627L13.7072 15.101H13.9395C14.8923 16.9475 16.9246 19.7752 18.8183 20.6768L19.0506 20.4445C18.2992 18.7585 16.4896 16.3427 15.0339 15.1849C14.4132 14.6913 13.2379 14.8027 12.9424 15.6564C12.4179 17.1723 14.9044 20.7351 15.3334 22.3031Z" fill="#FF7000"/>
<path d="M9.06084 15.1011C8.41159 16.6605 5.23399 20.6991 6.50529 22.0708L9.99014 15.3334L9.06084 15.1011Z" fill="#FF7000"/>
<path d="M10.2222 15.5659L9.06055 23.0003C11.1946 22.376 10.0117 17.4405 11.6161 16.0306C11.6161 17.5174 11.4009 22.5296 13.01 23.0003C13.009 21.5048 13.3122 17.1191 12.3066 15.9906C11.899 15.5332 10.7877 15.6273 10.2222 15.5659Z" fill="#FF7000"/>
<text x="26.89" y="17.5" font-family="ui-monospace, SFMono-Regular, Menlo, Monaco, Consolas, 'Liberation Mono', 'Courier New', monospace" font-weight="500" font-size="16"><tspan fill="white">Dao</tspan><tspan fill="#FF7000">Overflow</tspan></text>
</svg>
